# xmcd
#
# Track frame offsets:
# 150
# 12612
# 29155
# 43700
# 58760
# 68880
# 79130
# 89422
# 101712
# 115352
# 129572
# 143807
#
# Disc length: 2096 seconds
#
#
# Revision: 0
# Processed by: cddbd v1.5.1PL0 Copyright (c) Steve Scherf et al.
# Submitted via: FreeRIP 2.941 
#
DISCID=b2082e0c
DTITLE=Bill Flemin - Para Ouvir, Dançar e Sonhar-Happy Hours
DYEAR=1999
DGENRE=Big Band
TTITLE0=Sometthing's gotta Give
TTITLE1=Stars Fell On Alabama
TTITLE2=Midnigth Lace
TTITLE3=Bewitched
TTITLE4=Love Paris
TTITLE5=Little Prince Song
TTITLE6=You Were Meant For Me
TTITLE7=Tender Is The Nigth
TTITLE8=On The street Where You LIve
TTITLE9=Stala By Starligth
TTITLE10=Moon River
TTITLE11=The Docto Kildare Themer
EXTD=
EXTT0=
EXTT1=
EXTT2=
EXTT3=
EXTT4=
EXTT5=
EXTT6=
EXTT7=
EXTT8=
EXTT9=
EXTT10=
EXTT11=
PLAYORDER=
